<svg width="36" height="23" viewBox="0 0 36 23" fill="none" xmlns="http://www.w3.org/2000/svg">
<path d="M35.3842 11.5914L24.2588 21.9984C23.969 22.2694 23.4997 22.2694 23.21 21.9984C22.9202 21.7273 22.9202 21.2883 23.21 21.0173L33.0694 11.7946L0.741723 11.7946C0.331749 11.7946 1.00162e-06 11.4843 1.03746e-06 11.1008C1.07331e-06 10.7173 0.331749 10.407 0.741723 10.407L33.0694 10.407L23.21 1.18432C22.9202 0.913286 22.9202 0.474241 23.21 0.203268C23.3548 0.0677834 23.5446 5.74011e-06 23.7344 5.75563e-06C23.9242 5.77115e-06 24.1139 0.0677834 24.2588 0.203268L35.3843 10.6103C35.674 10.8813 35.674 11.3203 35.3842 11.5914Z" fill="black"/>
</svg>
